<?xml version="1.0" encoding="UTF-8"?>
<svg xmlns="http://www.w3.org/2000/svg" xmlns:xlink="http://www.w3.org/1999/xlink"
  width="1051" height="1376" viewBox="0 0 1051 1376">
<defs>
  <linearGradient id="bg" x1="0%" y1="0%" x2="100%" y2="100%">
    <stop offset="0%"   stop-color="#0B0D0F"/>
    <stop offset="100%" stop-color="#1A1A1A"/>
  </linearGradient>
  <clipPath id="rc"><rect x="20" y="20" width="1011" height="638" rx="16"/></clipPath>
  <clipPath id="vc"><rect x="20" y="718" width="1011" height="638" rx="16"/></clipPath>
</defs>

<!-- ═══ LABEL RECTO ═══ -->
<text x="20" y="12" font-family="Arial,sans-serif" font-size="11" fill="#777">RECTO</text>

<!-- ═══ RECTO ═══ -->
<g clip-path="url(#rc)">
  <rect x="20" y="20" width="1011" height="638" fill="url(#bg)"/>
  <rect x="20" y="518" width="1011" height="140" fill="#E10600" opacity="0.9"/>

  <!-- QR Code -->
  <g transform="translate(44,147.5)">
    <svg viewBox="0 0 21 21" width="383" height="383" preserveAspectRatio="xMidYMid meet">
      <path fill="#0B0D0F" d="M0 0h47v47H0z"/><path stroke="#E10600" d="M1 1.5h7m2 0h1m1 0h1m2 0h2m6 0h2m3 0h5m1 0h1m2 0h1m1 0h7M1 2.5h1m5 0h1m2 0h1m3 0h1m3 0h2m2 0h2m2 0h3m1 0h2m1 0h2m1 0h1m2 0h1m5 0h1M1 3.5h1m1 0h3m1 0h1m2 0h2m3 0h4m2 0h2m2 0h2m3 0h2m4 0h1m2 0h1m1 0h3m1 0h1M1 4.5h1m1 0h3m1 0h1m4 0h1m8 0h1m3 0h1m1 0h2m1 0h1m3 0h1m1 0h2m1 0h1m1 0h3m1 0h1M1 5.5h1m1 0h3m1 0h1m1 0h2m1 0h2m1 0h1m1 0h1m1 0h1m1 0h6m3 0h1m1 0h6m1 0h1m1 0h3m1 0h1M1 6.5h1m5 0h1m2 0h4m3 0h2m1 0h2m3 0h2m1 0h5m1 0h1m4 0h1m5 0h1M1 7.5h7m1 0h1m1 0h1m1 0h1m1 0h1m1 0h1m1 0h1m1 0h1m1 0h1m1 0h1m1 0h1m1 0h1m1 0h1m1 0h1m1 0h1m1 0h1m1 0h7M9 8.5h2m1 0h1m1 0h4m1 0h3m3 0h2m2 0h2m3 0h3M3 9.5h2m2 0h5m1 0h1m4 0h1m1 0h8m2 0h2m2 0h1m1 0h4m1 0h1M1 10.5h1m3 0h2m1 0h2m1 0h1m1 0h1m1 0h4m2 0h1m2 0h1m1 0h1m2 0h1m1 0h1m5 0h1m2 0h1m1 0h2m1 0h1M2 11.5h1m2 0h3m2 0h5m2 0h2m1 0h1m3 0h2m1 0h1m1 0h5m1 0h1m2 0h1m4 0h3M2 12.5h1m1 0h2m4 0h2m1 0h3m1 0h3m1 0h1m2 0h1m1 0h4m2 0h2m1 0h1m1 0h2m3 0h1m1 0h1M1 13.5h1m1 0h2m1 0h2m2 0h1m2 0h2m2 0h2m1 0h1m3 0h2m1 0h2m3 0h1m1 0h1m5 0h1m3 0h1M1 14.5h1m3 0h2m7 0h1m3 0h7m2 0h1m4 0h2m2 0h1m2 0h1m1 0h4M1 15.5h3m1 0h1m1 0h2m1 0h2m1 0h2m1 0h1m1 0h2m4 0h1m2 0h1m1 0h1m1 0h2m1 0h1m4 0h3m2 0h1M1 16.5h2m1 0h3m1 0h2m6 0h1m3 0h4m1 0h6m2 0h1m1 0h1m1 0h1m1 0h7M2 17.5h1m1 0h2m1 0h5m3 0h1m5 0h4m1 0h1m3 0h2m1 0h2m2 0h1m2 0h1m2 0h3M4 18.5h2m2 0h1m2 0h1m2 0h1m3 0h2m1 0h1m2 0h1m1 0h1m1 0h8m2 0h1m1 0h6M2 19.5h1m2 0h1m1 0h1m2 0h2m1 0h3m3 0h5m3 0h1m3 0h1m2 0h2m1 0h3m2 0h1m1 0h1M3 20.5h3m4 0h3m1 0h2m1 0h2m1 0h1m2 0h1m2 0h2m2 0h1m4 0h2m2 0h3m3 0h1M3 21.5h1m1 0h10m2 0h2m2 0h5m1 0h4m3 0h2m1 0h9M1 22.5h1m3 0h1m3 0h4m2 0h1m5 0h1m3 0h1m1 0h1m1 0h1m1 0h3m2 0h2m3 0h1m3 0h1M1 23.5h2m2 0h1m1 0h1m1 0h1m2 0h4m4 0h2m1 0h1m1 0h5m3 0h1m1 0h3m1 0h1m1 0h1m2 0h2M1 24.5h2m2 0h1m3 0h1m3 0h1m1 0h3m3 0h1m3 0h1m1 0h1m1 0h1m2 0h1m1 0h2m1 0h1m3 0h1m2 0h1M1 25.5h9m1 0h4m3 0h10m2 0h4m2 0h7m1 0h2M1 26.5h1m1 0h3m2 0h1m1 0h1m1 0h2m2 0h1m3 0h1m1 0h3m4 0h1m1 0h1m5 0h1m6 0h1M2 27.5h1m4 0h2m3 0h1m1 0h1m3 0h1m2 0h2m1 0h1m1 0h1m3 0h2m1 0h2m1 0h1m1 0h1m2 0h2m1 0h1M1 28.5h1m1 0h1m4 0h1m3 0h2m1 0h2m2 0h1m2 0h1m2 0h1m1 0h1m1 0h1m2 0h2m1 0h2m1 0h2m2 0h3M1 29.5h2m3 0h2m3 0h2m5 0h3m2 0h1m1 0h1m2 0h2m1 0h1m1 0h1m2 0h3m1 0h6M1 30.5h1m2 0h1m4 0h4m2 0h2m2 0h1m1 0h6m2 0h2m3 0h3m3 0h2m3 0h1M1 31.5h3m1 0h1m1 0h1m1 0h3m1 0h2m1 0h5m1 0h1m4 0h1m1 0h1m1 0h5m2 0h1m1 0h1m1 0h2M1 32.5h1m2 0h1m1 0h1m3 0h4m1 0h1m2 0h1m1 0h1m19 0h1m1 0h1m1 0h2M1 33.5h1m2 0h2m1 0h3m4 0h2m1 0h2m1 0h1m1 0h1m1 0h1m1 0h1m4 0h1m3 0h1m2 0h1m1 0h1m1 0h2m1 0h1M1 34.5h1m8 0h1m1 0h2m1 0h3m2 0h1m5 0h1m3 0h1m1 0h1m1 0h1m1 0h3m1 0h1m1 0h4M5 35.5h1m1 0h3m1 0h1m2 0h3m1 0h2m1 0h1m1 0h1m1 0h1m3 0h1m1 0h3m1 0h5m2 0h1m2 0h1M2 36.5h4m2 0h1m2 0h2m1 0h1m3 0h1m1 0h7m1 0h1m4 0h4m1 0h2m2 0h1m1 0h2M1 37.5h1m2 0h2m1 0h3m1 0h2m2 0h3m3 0h5m1 0h1m1 0h4m1 0h2m1 0h6m1 0h1M9 38.5h1m1 0h2m1 0h2m4 0h2m3 0h3m1 0h1m2 0h1m3 0h2m3 0h2M1 39.5h7m1 0h2m1 0h3m2 0h2m2 0h1m1 0h1m1 0h2m1 0h1m2 0h1m1 0h2m2 0h1m1 0h1m1 0h3M1 40.5h1m5 0h1m7 0h3m1 0h1m1 0h1m3 0h2m2 0h1m1 0h1m1 0h1m2 0h2m3 0h3M1 41.5h1m1 0h3m1 0h1m2 0h2m3 0h5m1 0h7m3 0h4m1 0h6m1 0h2M1 42.5h1m1 0h3m1 0h1m1 0h1m1 0h2m1 0h3m1 0h3m6 0h1m3 0h1m1 0h1m1 0h5m3 0h1m1 0h1M1 43.5h1m1 0h3m1 0h1m1 0h2m1 0h2m1 0h2m1 0h6m1 0h1m1 0h1m1 0h1m2 0h4m1 0h1m1 0h1m3 0h1M1 44.5h1m5 0h1m3 0h2m4 0h1m3 0h1m8 0h2m1 0h2m1 0h1m2 0h1m1 0h2m2 0h1M1 45.5h7m2 0h1m2 0h1m3 0h1m1 0h1m2 0h3m1 0h2m1 0h1m2 0h1m2 0h2m1 0h6"/>
    </svg>
  </g>

  <!-- Nom business -->
  <text x="451" y="64"
    font-family="Space Grotesk,Arial,sans-serif" font-size="16" font-weight="Bold"
    fill="#FFFFFF" dominant-baseline="central">VirtualTest</text>

  

  <!-- Étoiles décoratives -->
  <polygon points="451.0,326.0 452.5,329.0 455.8,329.5 453.4,331.8 453.9,335.0 451.0,333.5 448.1,335.0 448.6,331.8 446.2,329.5 449.5,329.0" fill="#F59E0B" opacity="0.85"/><polygon points="464.0,326.0 465.5,329.0 468.8,329.5 466.4,331.8 466.9,335.0 464.0,333.5 461.1,335.0 461.6,331.8 459.2,329.5 462.5,329.0" fill="#F59E0B" opacity="0.85"/><polygon points="477.0,326.0 478.5,329.0 481.8,329.5 479.4,331.8 479.9,335.0 477.0,333.5 474.1,335.0 474.6,331.8 472.2,329.5 475.5,329.0" fill="#F59E0B" opacity="0.85"/><polygon points="490.0,326.0 491.5,329.0 494.8,329.5 492.4,331.8 492.9,335.0 490.0,333.5 487.1,335.0 487.6,331.8 485.2,329.5 488.5,329.0" fill="#F59E0B" opacity="0.85"/><polygon points="503.0,326.0 504.5,329.0 507.8,329.5 505.4,331.8 505.9,335.0 503.0,333.5 500.1,335.0 500.6,331.8 498.2,329.5 501.5,329.0" fill="#F59E0B" opacity="0.85"/>

  <!-- Instructions -->
  <text x="451" y="606"
    font-family="Arial,sans-serif" font-size="9" fill="#FFFFFF" opacity="0.58">Approach the phone to the card</text>
  <text x="451" y="623"
    font-family="Arial,sans-serif" font-size="9" fill="#FFFFFF" opacity="0.58">Tap to leave a review</text>

  <text x="999" y="52" font-family="Arial,sans-serif" font-size="14"
    font-weight="bold" fill="white" opacity="0.7">G</text>
</g>

<!-- Séparateur pointillé -->
<line x1="20" y1="688"
      x2="1031" y2="688"
      stroke="#555" stroke-width="0.5" stroke-dasharray="5 4" opacity="0.35"/>

<!-- ═══ LABEL VERSO ═══ -->
<text x="20" y="710" font-family="Arial,sans-serif" font-size="11" fill="#777">VERSO</text>

<!-- ═══ VERSO ═══ -->
<g clip-path="url(#vc)">
  <rect x="20" y="718" width="1011" height="638" fill="url(#bg)"/>
  <rect x="20" y="718" width="1011" height="77" fill="#E10600" opacity="0.7"/>

  
    <circle cx="525.5" cy="1023" r="7.5" fill="#E10600" opacity="0.9"/>
    <path d="M508.5 1023 A17 17 0 0 1 542.5 1023" fill="none" stroke="#E10600" stroke-width="2" opacity="0.7"/>
    <path d="M500 1023 A25.5 25.5 0 0 1 551 1023" fill="none" stroke="#E10600" stroke-width="1.5" opacity="0.5"/>
    <path d="M491.5 1023 A34 34 0 0 1 559.5 1023" fill="none" stroke="#E10600" stroke-width="1" opacity="0.3"/>

  <text x="525.5" y="1312"
    font-family="Arial,sans-serif" font-size="9" fill="#FFFFFF" opacity="0.58"
    text-anchor="middle">Use your phone camera to scan the QR code</text>
  <text x="525.5" y="1329"
    font-family="Arial,sans-serif" font-size="9" fill="#FFFFFF" opacity="0.58"
    text-anchor="middle">Write a review on our Google Maps page</text>

  <text x="525.5" y="1346"
    font-family="Arial,sans-serif" font-size="8" fill="#FFFFFF" opacity="0.32"
    text-anchor="middle">Powered by RedVanta</text>
</g>
</svg>