<?xml version="1.0" encoding="UTF-8"?>
<svg xmlns="http://www.w3.org/2000/svg" xmlns:xlink="http://www.w3.org/1999/xlink"
  width="1071" height="1416" viewBox="0 0 1071 1416">
<defs>
  
  <linearGradient id="rectoGrad" x1="94%" y1="34%" x2="6%" y2="66%">
    <stop offset="0%"  stop-color="#0B0D0F"/>
    <stop offset="70%" stop-color="#0B0D0F"/>
  </linearGradient>
  <linearGradient id="versoGrad" x1="94%" y1="34%" x2="6%" y2="66%">
    <stop offset="0%"   stop-color="#0B0D0F"/>
    <stop offset="100%" stop-color="#0B0D0F"/>
  </linearGradient>
  <linearGradient id="bandGrad" x1="0%" y1="0%" x2="100%" y2="0%">
    <stop offset="0%"   stop-color="#E10600"/>
    <stop offset="100%" stop-color="#FF4444"/>
  </linearGradient>
  <clipPath id="cr">
    <rect x="30" y="30" width="1011" height="638" rx="16"/>
  </clipPath>
  <clipPath id="cv">
    <rect x="30" y="748" width="1011" height="638" rx="16"/>
  </clipPath>
</defs>

<text x="30" y="20" font-family="Arial,sans-serif" font-size="20" fill="#555">RECTO</text>
<g clip-path="url(#cr)">
  
  <!-- Fond recto -->
  <rect x="30" y="30" width="1011" height="638" fill="url(#rectoGrad)"/>

  <!-- NFC icon (absolute top-3 right-3 opacity-30) -->
  <g transform="translate(943, 72) scale(2.333)"
    fill="none" stroke="#FFFFFF" stroke-width="2" stroke-linecap="round"
    opacity="0.3">
    <path d="M6 8.32a7.43 7.43 0 0 1 0 7.36"/>
    <path d="M9.46 6.21a11.76 11.76 0 0 1 0 11.58"/>
    <path d="M12.91 4.1a16.09 16.09 0 0 1 0 15.8"/>
  </g>

  <!-- Google icon (absolute bottom-3 right-3 opacity-60) -->
  <g transform="translate(929, 556) scale(2.917)" opacity="0.6">
    <path d="M22.56 12.25c0-.78-.07-1.53-.2-2.25H12v4.26h5.92a5.06 5.06 0 0 1-2.2 3.32v2.77h3.57c2.08-1.92 3.27-4.74 3.27-8.1z" fill="#4285F4"/>
    <path d="M12 23c2.97 0 5.46-.98 7.28-2.66l-3.57-2.77c-.98.66-2.23 1.06-3.71 1.06-2.86 0-5.29-1.93-6.16-4.53H2.18v2.84C3.99 20.53 7.7 23 12 23z" fill="#34A853"/>
    <path d="M5.84 14.09c-.22-.66-.35-1.36-.35-2.09s.13-1.43.35-2.09V7.07H2.18C1.43 8.55 1 10.22 1 12s.43 3.45 1.18 4.93l2.85-2.22.81-.62z" fill="#FBBC05"/>
    <path d="M12 5.38c1.62 0 3.06.56 4.21 1.64l3.15-3.15C17.45 2.09 14.97 1 12 1 7.7 1 3.99 3.47 2.18 7.07l3.66 2.84c.87-2.6 3.3-4.53 6.16-4.53z" fill="#EA4335"/>
  </g>

  <!-- Logo -->
  

  <!-- businessName -->
  <text x="233" y="183"
    font-family="Space Grotesk" font-size="56"
    font-weight="Bold"
    letter-spacing="0em"
    
    fill="#FFFFFF"
    text-anchor="start"
    >VirtualTest</text>

  <!-- slogan -->
  <text x="233" y="239"
    font-family="Inter" font-size="42"
    font-weight="Regular"
    letter-spacing="0em"
    
    fill="#FFFFFF" opacity="0.70"
    >Slogan</text>

  <!-- StarsRow -->
  <polygon points="257.50,253.00 263.00,269.93 280.80,269.93 266.40,280.39 271.90,297.32 257.50,286.86 243.10,297.32 248.60,280.39 234.20,269.93 252.00,269.93" fill="#F59E0B"/><polygon points="313.50,253.00 319.00,269.93 336.80,269.93 322.40,280.39 327.90,297.32 313.50,286.86 299.10,297.32 304.60,280.39 290.20,269.93 308.00,269.93" fill="#F59E0B"/><polygon points="369.50,253.00 375.00,269.93 392.80,269.93 378.40,280.39 383.90,297.32 369.50,286.86 355.10,297.32 360.60,280.39 346.20,269.93 364.00,269.93" fill="#F59E0B"/><polygon points="425.50,253.00 431.00,269.93 448.80,269.93 434.40,280.39 439.90,297.32 425.50,286.86 411.10,297.32 416.60,280.39 402.20,269.93 420.00,269.93" fill="#F59E0B"/><polygon points="481.50,253.00 487.00,269.93 504.80,269.93 490.40,280.39 495.90,297.32 481.50,286.86 467.10,297.32 472.60,280.39 458.20,269.93 476.00,269.93" fill="#F59E0B"/>

  <!-- Instructions -->
  
  <circle cx="121" cy="361" r="23.1" fill="#22C55E" opacity="0.12"/>
  <polyline
    points="108.4,361 118.9,377.8 135.7,350.5"
    fill="none" stroke="#22C55E"
    stroke-width="6.125"
    stroke-linecap="round" stroke-linejoin="round"/>
  <text x="163" y="382"
    font-family="Space Grotesk" font-size="35"
    font-weight="Regular"
    letter-spacing="0em"
    fill="#FFFFFF" opacity="0.90">Approach the phone to the card</text>
  
  <circle cx="121" cy="424" r="23.1" fill="#22C55E" opacity="0.12"/>
  <polyline
    points="108.4,424 118.9,440.8 135.7,413.5"
    fill="none" stroke="#22C55E"
    stroke-width="6.125"
    stroke-linecap="round" stroke-linejoin="round"/>
  <text x="163" y="445"
    font-family="Space Grotesk" font-size="35"
    font-weight="Regular"
    letter-spacing="0em"
    fill="#FFFFFF" opacity="0.90">Tap to leave a review</text>

  <!-- CTA -->
  <text x="100" y="561"
    font-family="Space Grotesk" font-size="32"
    font-weight="500"
    fill="#FFFFFF" opacity="0.80">Powered by RedVanta</text>

  
</g>

<line x1="30" y1="708"
      x2="1041" y2="708"
      stroke="#333" stroke-width="1" stroke-dasharray="8 5" opacity="0.5"/>

<text x="30" y="738" font-family="Arial,sans-serif" font-size="20" fill="#555">VERSO</text>
<g clip-path="url(#cv)">
  
  <!-- Fond verso -->
  <rect x="30" y="748" width="1011" height="638" fill="url(#versoGrad)"/>

  <!-- Google icon -->
  <g transform="translate(929, 1274) scale(2.917)" opacity="0.6">
    <path d="M22.56 12.25c0-.78-.07-1.53-.2-2.25H12v4.26h5.92a5.06 5.06 0 0 1-2.2 3.32v2.77h3.57c2.08-1.92 3.27-4.74 3.27-8.1z" fill="#4285F4"/>
    <path d="M12 23c2.97 0 5.46-.98 7.28-2.66l-3.57-2.77c-.98.66-2.23 1.06-3.71 1.06-2.86 0-5.29-1.93-6.16-4.53H2.18v2.84C3.99 20.53 7.7 23 12 23z" fill="#34A853"/>
    <path d="M5.84 14.09c-.22-.66-.35-1.36-.35-2.09s.13-1.43.35-2.09V7.07H2.18C1.43 8.55 1 10.22 1 12s.43 3.45 1.18 4.93l2.85-2.22.81-.62z" fill="#FBBC05"/>
    <path d="M12 5.38c1.62 0 3.06.56 4.21 1.64l3.15-3.15C17.45 2.09 14.97 1 12 1 7.7 1 3.99 3.47 2.18 7.07l3.66 2.84c.87-2.6 3.3-4.53 6.16-4.53z" fill="#EA4335"/>
  </g>

  <!-- QR box — fond blanc obligatoire pour scannabilité (noir sur blanc = standard universel) -->
  <rect x="654" y="825" width="210" height="210"
    rx="8" ry="8"
    fill="#FFFFFF"/>
  <!-- Le QR SVG contient déjà son fond blanc grâce à light="#FFFFFF" dans buildQrInner -->
  <svg x="654" y="825"
       width="210" height="210"
       viewBox="0 0 210 210" preserveAspectRatio="xMidYMid meet">
    <rect width="210" height="210" fill="#FFFFFF"/>
    <svg x="17" y="17" width="176" height="176"
         viewBox="0 0 176 176" preserveAspectRatio="xMidYMid meet">
      
    <svg viewBox="0 0 47 47" preserveAspectRatio="xMidYMid meet" width="100%" height="100%">
      <path fill="#FFFFFF" d="M0 0h47v47H0z"/><path stroke="#000000" d="M1 1.5h7m1 0h1m2 0h1m1 0h1m2 0h2m1 0h2m2 0h5m2 0h1m1 0h2m2 0h1m1 0h7M1 2.5h1m5 0h1m2 0h1m1 0h1m2 0h1m2 0h2m1 0h3m2 0h1m1 0h1m7 0h1m2 0h1m5 0h1M1 3.5h1m1 0h3m1 0h1m1 0h1m3 0h1m2 0h1m1 0h1m1 0h3m1 0h1m5 0h1m1 0h1m3 0h1m2 0h1m1 0h3m1 0h1M1 4.5h1m1 0h3m1 0h1m2 0h2m3 0h1m2 0h1m2 0h6m2 0h2m2 0h2m1 0h2m1 0h1m1 0h3m1 0h1M1 5.5h1m1 0h3m1 0h1m1 0h1m3 0h1m4 0h1m2 0h6m2 0h1m1 0h2m1 0h4m1 0h1m1 0h3m1 0h1M1 6.5h1m5 0h1m3 0h5m1 0h1m3 0h1m3 0h3m2 0h1m3 0h1m4 0h1m5 0h1M1 7.5h7m1 0h1m1 0h1m1 0h1m1 0h1m1 0h1m1 0h1m1 0h1m1 0h1m1 0h1m1 0h1m1 0h1m1 0h1m1 0h1m1 0h1m1 0h1m1 0h7M9 8.5h2m4 0h1m5 0h1m3 0h2m1 0h1m1 0h2m2 0h2M6 9.5h2m2 0h1m3 0h1m1 0h2m1 0h1m1 0h5m1 0h2m2 0h3m1 0h2m2 0h1m1 0h1m1 0h1m1 0h1M1 10.5h4m3 0h2m2 0h4m4 0h4m1 0h1m2 0h2m1 0h1m1 0h6m2 0h4M2 11.5h1m3 0h2m4 0h11m3 0h4m4 0h2m1 0h2m4 0h1M1 12.5h6m1 0h1m1 0h3m2 0h1m3 0h2m2 0h1m1 0h4m4 0h1m6 0h3m1 0h2M3 13.5h3m1 0h4m1 0h2m1 0h4m2 0h1m1 0h2m1 0h1m4 0h1m1 0h4m1 0h2m2 0h2M3 14.5h1m2 0h1m2 0h2m1 0h1m1 0h4m1 0h1m2 0h2m2 0h1m1 0h1m3 0h1m4 0h1m3 0h1m2 0h2M3 15.5h5m2 0h2m1 0h2m1 0h3m4 0h2m3 0h4m3 0h1m2 0h2m3 0h1M1 16.5h1m1 0h1m4 0h2m1 0h2m1 0h1m3 0h1m1 0h1m4 0h1m1 0h4m3 0h1m1 0h2m2 0h1m1 0h2M2 17.5h2m1 0h1m1 0h1m1 0h2m1 0h4m1 0h1m3 0h2m2 0h1m2 0h1m7 0h1m2 0h2m1 0h1M1 18.5h1m2 0h1m1 0h1m2 0h2m2 0h3m2 0h3m3 0h2m2 0h1m1 0h1m2 0h1m3 0h1m2 0h1m1 0h1m2 0h1M3 19.5h1m1 0h1m1 0h2m1 0h1m1 0h4m1 0h3m1 0h1m2 0h1m3 0h1m1 0h4m2 0h2m3 0h1m3 0h1M1 20.5h1m2 0h2m7 0h1m3 0h1m1 0h2m2 0h4m4 0h1m1 0h1m1 0h1m1 0h1m1 0h5M1 21.5h2m1 0h6m3 0h1m1 0h5m1 0h7m2 0h3m1 0h2m1 0h6m2 0h1M1 22.5h1m1 0h3m3 0h1m2 0h1m1 0h1m1 0h2m2 0h2m3 0h1m2 0h1m2 0h2m1 0h4m3 0h3M1 23.5h1m1 0h1m1 0h1m1 0h1m1 0h2m2 0h2m1 0h2m1 0h1m1 0h1m1 0h1m1 0h2m2 0h3m5 0h1m1 0h1m1 0h1m1 0h2M1 24.5h2m1 0h2m3 0h1m1 0h1m1 0h2m1 0h2m3 0h1m3 0h1m1 0h1m1 0h2m4 0h1m1 0h1m3 0h4M3 25.5h1m1 0h5m2 0h2m1 0h1m1 0h2m2 0h9m4 0h2m1 0h6m2 0h1M2 26.5h4m2 0h3m2 0h1m1 0h1m1 0h1m1 0h5m1 0h5m3 0h4m1 0h1m5 0h1M5 27.5h4m1 0h1m2 0h1m1 0h1m1 0h5m1 0h1m3 0h2m1 0h4m2 0h1m3 0h1m1 0h2m1 0h1M3 28.5h2m1 0h1m1 0h1m1 0h3m1 0h1m3 0h1m2 0h1m3 0h2m1 0h1m3 0h3m2 0h2m1 0h2m1 0h3M3 29.5h1m3 0h1m3 0h3m2 0h1m1 0h7m1 0h1m1 0h3m2 0h2m1 0h1m2 0h1m1 0h1m1 0h1M1 30.5h2m1 0h2m2 0h2m2 0h1m2 0h4m2 0h1m3 0h1m4 0h3m1 0h1m5 0h1m1 0h3M1 31.5h4m1 0h2m1 0h1m2 0h2m1 0h2m2 0h1m2 0h1m1 0h3m3 0h5m1 0h2m2 0h2m1 0h1m1 0h1M1 32.5h4m3 0h2m1 0h1m1 0h1m10 0h1m1 0h2m4 0h2m3 0h1m2 0h1M3 33.5h6m1 0h1m2 0h1m1 0h1m3 0h3m3 0h3m1 0h1m4 0h1m1 0h5m1 0h2M1 34.5h3m1 0h1m3 0h2m1 0h1m3 0h1m1 0h1m1 0h1m1 0h2m4 0h3m1 0h2m1 0h2m2 0h2m1 0h2M5 35.5h1m1 0h1m1 0h1m1 0h2m2 0h2m1 0h8m4 0h3m1 0h3m1 0h3m2 0h2M2 36.5h4m5 0h1m1 0h3m4 0h1m1 0h1m1 0h1m1 0h1m1 0h1m3 0h2m1 0h3m3 0h3M1 37.5h1m2 0h2m1 0h1m2 0h1m3 0h1m1 0h1m2 0h1m1 0h5m2 0h1m1 0h1m2 0h1m1 0h7m2 0h1M9 38.5h1m1 0h1m1 0h3m3 0h1m1 0h1m3 0h1m6 0h2m2 0h2m3 0h1m1 0h1m1 0h1M1 39.5h7m2 0h3m2 0h2m1 0h4m1 0h1m1 0h1m6 0h2m1 0h1m1 0h1m1 0h1m1 0h2m1 0h1M1 40.5h1m5 0h1m1 0h3m2 0h2m3 0h3m3 0h4m2 0h1m3 0h1m1 0h1m3 0h3m1 0h1M1 41.5h1m1 0h3m1 0h1m3 0h2m1 0h1m2 0h1m3 0h6m1 0h1m3 0h1m1 0h1m2 0h6m1 0h2M1 42.5h1m1 0h3m1 0h1m3 0h2m3 0h1m1 0h1m2 0h1m1 0h5m1 0h1m1 0h3m2 0h1m2 0h1m1 0h1m1 0h1m1 0h1M1 43.5h1m1 0h3m1 0h1m2 0h2m1 0h7m1 0h2m3 0h1m3 0h2m4 0h3m1 0h1m2 0h3M1 44.5h1m5 0h1m3 0h1m2 0h2m1 0h1m1 0h3m5 0h2m1 0h1m4 0h1m1 0h1m2 0h1m1 0h2M1 45.5h7m3 0h1m1 0h6m1 0h4m1 0h1m3 0h1m4 0h1m1 0h2m1 0h1m4 0h1"/>
    </svg>
  
    </svg>
  </svg>

  <!-- businessName -->
  <text x="410" y="893"
    font-family="Space Grotesk" font-size="42"
    font-weight="Bold"
    fill="#FFFFFF" text-anchor="middle">VirtualTest</text>

  <!-- slogan -->
  <text x="410" y="942"
    font-family="Inter" font-size="35"
    font-weight="Regular"
    fill="#FFFFFF" opacity="0.70" text-anchor="middle">Slogan</text>

  <!-- StarsRow -->
  <polygon points="314.50,956.00 318.88,969.47 333.05,969.47 321.58,977.80 325.96,991.28 314.50,982.95 303.04,991.28 307.42,977.80 295.95,969.47 310.12,969.47" fill="#F59E0B"/><polygon points="360.50,956.00 364.88,969.47 379.05,969.47 367.58,977.80 371.96,991.28 360.50,982.95 349.04,991.28 353.42,977.80 341.95,969.47 356.12,969.47" fill="#F59E0B"/><polygon points="406.50,956.00 410.88,969.47 425.05,969.47 413.58,977.80 417.96,991.28 406.50,982.95 395.04,991.28 399.42,977.80 387.95,969.47 402.12,969.47" fill="#F59E0B"/><polygon points="452.50,956.00 456.88,969.47 471.05,969.47 459.58,977.80 463.96,991.28 452.50,982.95 441.04,991.28 445.42,977.80 433.95,969.47 448.12,969.47" fill="#F59E0B"/><polygon points="498.50,956.00 502.88,969.47 517.05,969.47 505.58,977.80 509.96,991.28 498.50,982.95 487.04,991.28 491.42,977.80 479.95,969.47 494.12,969.47" fill="#F59E0B"/>

  <!-- Instructions -->
  
  <circle cx="183.88" cy="1110.5" r="21.450000000000003" fill="#22C55E" opacity="0.12"/>
  <polyline
    points="172.18,1110.5 181.93,1126.1 197.53,1100.75"
    fill="none" stroke="#22C55E"
    stroke-width="6.125"
    stroke-linecap="round" stroke-linejoin="round"/>
  <text x="224.38" y="1130"
    font-family="Space Grotesk" font-size="32"
    font-weight="Regular"
    letter-spacing="0em"
    fill="#FFFFFF" opacity="0.90">Use your phone camera to scan the QR code</text>
  
  <circle cx="208.83999999999997" cy="1170.5" r="21.450000000000003" fill="#22C55E" opacity="0.12"/>
  <polyline
    points="197.14,1170.5 206.89,1186.1 222.48999999999998,1160.75"
    fill="none" stroke="#22C55E"
    stroke-width="6.125"
    stroke-linecap="round" stroke-linejoin="round"/>
  <text x="249.33999999999997" y="1190"
    font-family="Space Grotesk" font-size="32"
    font-weight="Regular"
    letter-spacing="0em"
    fill="#FFFFFF" opacity="0.90">Write a review on our Google Maps page</text>

  <!-- CTA -->
  <text x="535.5" y="1309"
    font-family="Space Grotesk" font-size="35"
    font-weight="500"
    fill="#FFFFFF" opacity="0.70" text-anchor="middle">Powered by RedVanta</text>

  
</g>
</svg>