<?xml version="1.0" encoding="UTF-8"?>
<svg xmlns="http://www.w3.org/2000/svg" xmlns:xlink="http://www.w3.org/1999/xlink"
  width="1071" height="1436" viewBox="0 0 1071 1436">
<defs>
  
  <linearGradient id="rectoGrad" x1="94%" y1="34%" x2="6%" y2="66%">
    <stop offset="0%" stop-color="#FBBC05"/>
    <stop offset="70%" stop-color="#34A853"/>
  </linearGradient>
  <linearGradient id="versoGrad" x1="94%" y1="34%" x2="6%" y2="66%">
    <stop offset="0%" stop-color="#34A853"/>
    <stop offset="100%" stop-color="#FBBC05"/>
  </linearGradient>
  <linearGradient id="bandGrad" x1="0%" y1="0%" x2="100%" y2="0%">
    <stop offset="0%" stop-color="#4285F4"/>
    <stop offset="100%" stop-color="#4285F4"/>
  </linearGradient>
  <clipPath id="cr">
    <rect x="30" y="30" width="1011" height="638" rx="16"/>
  </clipPath>
  <clipPath id="cv">
    <rect x="30" y="748" width="1011" height="638" rx="16"/>
  </clipPath>
</defs>

<text x="30" y="20" font-family="Arial,sans-serif" font-size="20" fill="#555">RECTO</text>
<g clip-path="url(#cr)">
  
  <!-- Fond recto -->
  <rect x="30" y="30" width="1011" height="638" fill="url(#rectoGrad)"/>

  <!-- ✅ Band AVANT les icons (z-order) -->
  <rect x="30" y="528" width="1011" height="140"
    fill="url(#bandGrad)" opacity="0.9"/>

  <!-- NFC icon -->
  <g transform="translate(915, 72) scale(3.500)"
    fill="none" stroke="#1a1a1a" stroke-width="2" stroke-linecap="round"
    opacity="0.3">
    <path d="M6 8.32a7.43 7.43 0 0 1 0 7.36"/>
    <path d="M9.46 6.21a11.76 11.76 0 0 1 0 11.58"/>
    <path d="M12.91 4.1a16.09 16.09 0 0 1 0 15.8"/>
  </g>

  <!-- ✅ Google icon - DESSUS du band -->
  <g transform="translate(929, 556) scale(2.917)" opacity="1">
    <path d="M22.56 12.25c0-.78-.07-1.53-.2-2.25H12v4.26h5.92a5.06 5.06 0 0 1-2.2 3.32v2.77h3.57c2.08-1.92 3.27-4.74 3.27-8.1z" fill="#4285F4"/>
    <path d="M12 23c2.97 0 5.46-.98 7.28-2.66l-3.57-2.77c-.98.66-2.23 1.06-3.71 1.06-2.86 0-5.29-1.93-6.16-4.53H2.18v2.84C3.99 20.53 7.7 23 12 23z" fill="#34A853"/>
    <path d="M5.84 14.09c-.22-.66-.35-1.36-.35-2.09s.13-1.43.35-2.09V7.07H2.18C1.43 8.55 1 10.22 1 12s.43 3.45 1.18 4.93l2.85-2.22.81-.62z" fill="#FBBC05"/>
    <path d="M12 5.38c1.62 0 3.06.56 4.21 1.64l3.15-3.15C17.45 2.09 14.97 1 12 1 7.7 1 3.99 3.47 2.18 7.07l3.66 2.84c.87-2.6 3.3-4.53 6.16-4.53z" fill="#EA4335"/>
  </g>

  <!-- Business Name -->
  <text x="100" y="183"
    font-family="'Space Grotesk', sans-serif" font-size="56"
    font-weight="700"
    letter-spacing="0em"
    
    fill="#1a1a1a"
    text-anchor="start">VirtualTest</text>

  <!-- Slogan -->
  <text x="100" y="239"
    font-family="'Space Grotesk', sans-serif" font-size="42"
    font-weight="400"
    letter-spacing="0em"
    
    fill="#1a1a1a" opacity="0.70">slogan</text>

  <!-- Stars -->
  <polygon points="124.50,253.00 130.00,269.93 147.80,269.93 133.40,280.39 138.90,297.32 124.50,286.86 110.10,297.32 115.60,280.39 101.20,269.93 119.00,269.93" fill="#F59E0B"/><polygon points="180.50,253.00 186.00,269.93 203.80,269.93 189.40,280.39 194.90,297.32 180.50,286.86 166.10,297.32 171.60,280.39 157.20,269.93 175.00,269.93" fill="#F59E0B"/><polygon points="236.50,253.00 242.00,269.93 259.80,269.93 245.40,280.39 250.90,297.32 236.50,286.86 222.10,297.32 227.60,280.39 213.20,269.93 231.00,269.93" fill="#F59E0B"/><polygon points="292.50,253.00 298.00,269.93 315.80,269.93 301.40,280.39 306.90,297.32 292.50,286.86 278.10,297.32 283.60,280.39 269.20,269.93 287.00,269.93" fill="#F59E0B"/><polygon points="348.50,253.00 354.00,269.93 371.80,269.93 357.40,280.39 362.90,297.32 348.50,286.86 334.10,297.32 339.60,280.39 325.20,269.93 343.00,269.93" fill="#F59E0B"/>

  <!-- Instructions -->
  
  <circle cx="121" cy="361" r="23.1" fill="#22C55E" opacity="0.12"/>
  <polyline
    points="108.4,361 118.9,377.8 135.7,350.5"
    fill="none" stroke="#22C55E"
    stroke-width="1.5"
    stroke-linecap="round" stroke-linejoin="round"/>
  <text x="163" y="382"
    font-family="'Space Grotesk', sans-serif" font-size="35"
    font-weight="400"
    letter-spacing="0em"
    fill="#1a1a1a" opacity="0.90">Approach your phone to the card</text>
  
  <circle cx="121" cy="424" r="23.1" fill="#22C55E" opacity="0.12"/>
  <polyline
    points="108.4,424 118.9,440.8 135.7,413.5"
    fill="none" stroke="#22C55E"
    stroke-width="1.5"
    stroke-linecap="round" stroke-linejoin="round"/>
  <text x="163" y="445"
    font-family="'Space Grotesk', sans-serif" font-size="35"
    font-weight="400"
    letter-spacing="0em"
    fill="#1a1a1a" opacity="0.90">Tap to leave a review</text>

  <!-- ✅ CTA - DESSUS du band -->
  <text x="100" y="561"
    font-family="'Space Grotesk', sans-serif" font-size="32"
    font-weight="500"
    fill="#1a1a1a" opacity="0.80">Powered by RedVanta</text>

</g>

<line x1="30" y1="708" x2="1041" y2="708"
      stroke="#333" stroke-width="1" stroke-dasharray="8 5" opacity="0.5"/>

<text x="30" y="738" font-family="Arial,sans-serif" font-size="20" fill="#555">VERSO</text>
<g clip-path="url(#cv)">
  
  <!-- Fond verso -->
  <rect x="30" y="748" width="1011" height="638" fill="url(#versoGrad)"/>

  <!-- ✅ Band AVANT -->
  <rect x="30" y="1309" width="1011" height="77"
    fill="url(#bandGrad)" opacity="0.9"/>

  <!-- ✅ Google icon - DESSUS du band -->
  <g transform="translate(929, 1274) scale(2.917)" opacity="1">
    <path d="M22.56 12.25c0-.78-.07-1.53-.2-2.25H12v4.26h5.92a5.06 5.06 0 0 1-2.2 3.32v2.77h3.57c2.08-1.92 3.27-4.74 3.27-8.1z" fill="#4285F4"/>
    <path d="M12 23c2.97 0 5.46-.98 7.28-2.66l-3.57-2.77c-.98.66-2.23 1.06-3.71 1.06-2.86 0-5.29-1.93-6.16-4.53H2.18v2.84C3.99 20.53 7.7 23 12 23z" fill="#34A853"/>
    <path d="M5.84 14.09c-.22-.66-.35-1.36-.35-2.09s.13-1.43.35-2.09V7.07H2.18C1.43 8.55 1 10.22 1 12s.43 3.45 1.18 4.93l2.85-2.22.81-.62z" fill="#FBBC05"/>
    <path d="M12 5.38c1.62 0 3.06.56 4.21 1.64l3.15-3.15C17.45 2.09 14.97 1 12 1 7.7 1 3.99 3.47 2.18 7.07l3.66 2.84c.87-2.6 3.3-4.53 6.16-4.53z" fill="#EA4335"/>
  </g>

  <!-- ✅ QR Code avec fond blanc + brackets blancs -->
  <rect x="619" y="790" width="280" height="280"
    rx="8" fill="#FFFFFF"/>
  
  <!-- Brackets blancs -->
  <rect x="619" y="790" width="78" height="20" fill="#FFFFFF"/>
  <rect x="619" y="790" width="20" height="78" fill="#FFFFFF"/>
  <rect x="821" y="790" width="78" height="20" fill="#FFFFFF"/>
  <rect x="879" y="790" width="20" height="78" fill="#FFFFFF"/>
  <rect x="619" y="1050" width="78" height="20" fill="#FFFFFF"/>
  <rect x="619" y="992" width="20" height="78" fill="#FFFFFF"/>
  <rect x="821" y="1050" width="78" height="20" fill="#FFFFFF"/>
  <rect x="879" y="992" width="20" height="78" fill="#FFFFFF"/>

  <!-- QR SVG -->
  <svg x="647" y="818"
       width="224" height="224"
       viewBox="0 0 224 224"
       preserveAspectRatio="xMidYMid meet">
    <svg viewBox="0 0 45 45" preserveAspectRatio="xMidYMid meet" width="100%" height="100%">
    <path fill="#FFFFFF" d="M0 0h45v45H0z"/><path stroke="#E10600" d="M0 0.5h7m1 0h2m2 0h1m1 0h1m1 0h2m7 0h1m2 0h4m1 0h1m2 0h1m1 0h7M0 1.5h1m5 0h1m1 0h2m1 0h3m2 0h2m1 0h5m1 0h1m7 0h1m1 0h1m2 0h1m5 0h1M0 2.5h1m1 0h3m1 0h1m1 0h1m2 0h1m10 0h2m1 0h1m3 0h1m3 0h1m1 0h1m2 0h1m1 0h3m1 0h1M0 3.5h1m1 0h3m1 0h1m3 0h1m1 0h7m1 0h1m1 0h5m1 0h2m1 0h2m2 0h2m1 0h1m1 0h3m1 0h1M0 4.5h1m1 0h3m1 0h1m2 0h1m3 0h2m1 0h9m1 0h5m1 0h1m1 0h3m1 0h1m1 0h3m1 0h1M0 5.5h1m5 0h1m1 0h1m1 0h2m2 0h3m3 0h1m3 0h1m1 0h1m1 0h1m2 0h2m5 0h1m5 0h1M0 6.5h7m1 0h1m1 0h1m1 0h1m1 0h1m1 0h1m1 0h1m1 0h1m1 0h1m1 0h1m1 0h1m1 0h1m1 0h1m1 0h1m1 0h1m1 0h1m1 0h7M8 7.5h2m1 0h2m4 0h1m1 0h2m3 0h1m2 0h2m1 0h1m1 0h1m1 0h1m1 0h1M2 8.5h3m1 0h1m1 0h2m2 0h1m1 0h2m2 0h10m1 0h3m2 0h2m1 0h3m2 0h3M0 9.5h1m2 0h1m4 0h1m1 0h1m2 0h1m1 0h2m4 0h5m2 0h1m1 0h1m5 0h1m3 0h1m1 0h1m1 0h1M2 10.5h1m2 0h7m1 0h1m3 0h5m3 0h2m1 0h1m4 0h3m1 0h1m1 0h1m2 0h2M3 11.5h2m2 0h1m1 0h3m1 0h1m1 0h4m1 0h3m2 0h1m4 0h4m1 0h2m2 0h4M3 12.5h1m2 0h1m2 0h1m4 0h2m2 0h2m2 0h2m3 0h1m5 0h1m5 0h1m3 0h1M0 13.5h4m5 0h2m1 0h3m1 0h1m1 0h1m2 0h1m2 0h3m1 0h4m1 0h1m2 0h1m7 0h1M0 14.5h3m1 0h1m1 0h4m2 0h1m3 0h3m4 0h4m1 0h1m3 0h1m1 0h2m1 0h3m2 0h2M0 15.5h1m6 0h2m2 0h3m1 0h11m1 0h2m1 0h1m1 0h1m1 0h3m1 0h5M3 16.5h1m1 0h4m3 0h1m1 0h2m1 0h3m2 0h1m1 0h1m1 0h1m2 0h2m4 0h1m2 0h1m2 0h1M1 17.5h2m2 0h1m1 0h1m1 0h1m2 0h4m1 0h1m1 0h3m1 0h3m4 0h1m1 0h2m2 0h1m2 0h3m2 0h1M1 18.5h1m3 0h3m1 0h2m2 0h1m3 0h2m2 0h1m1 0h3m1 0h4m3 0h1m1 0h4m1 0h1m1 0h1M1 19.5h1m1 0h2m5 0h1m2 0h3m1 0h1m1 0h1m5 0h2m2 0h1m2 0h1m3 0h1m3 0h3M0 20.5h1m1 0h1m1 0h5m1 0h4m3 0h1m2 0h5m1 0h1m4 0h1m1 0h1m2 0h6m2 0h1M1 21.5h1m1 0h2m3 0h2m1 0h1m1 0h1m5 0h2m3 0h1m1 0h4m1 0h2m2 0h2m3 0h3m1 0h1M1 22.5h2m1 0h1m1 0h1m1 0h1m4 0h5m1 0h2m1 0h1m1 0h5m1 0h1m2 0h2m1 0h1m1 0h1m1 0h4M0 23.5h3m1 0h1m3 0h5m2 0h1m1 0h1m1 0h2m3 0h1m1 0h1m1 0h1m2 0h1m4 0h1m3 0h5M0 24.5h2m1 0h6m1 0h4m3 0h1m1 0h6m2 0h1m1 0h2m2 0h8m2 0h1M0 25.5h1m1 0h1m1 0h2m1 0h4m4 0h6m1 0h2m1 0h1m5 0h1m1 0h1m1 0h1m2 0h2m2 0h3M3 26.5h1m2 0h1m1 0h2m2 0h2m1 0h4m5 0h2m1 0h4m2 0h1m1 0h2m2 0h1m1 0h1M1 27.5h1m1 0h1m3 0h2m1 0h2m1 0h2m3 0h1m1 0h1m1 0h2m2 0h3m2 0h2m1 0h1m2 0h2m3 0h1m1 0h1M0 28.5h1m2 0h2m1 0h1m5 0h1m1 0h2m2 0h1m1 0h1m1 0h6m1 0h1m3 0h1m3 0h2m1 0h2M0 29.5h1m1 0h1m1 0h2m4 0h1m2 0h1m3 0h3m1 0h3m1 0h5m1 0h1m5 0h1m4 0h3M1 30.5h2m3 0h2m1 0h1m5 0h3m4 0h4m2 0h7m4 0h1M1 31.5h1m1 0h1m3 0h1m1 0h3m2 0h3m3 0h1m2 0h2m1 0h1m4 0h3m1 0h4m2 0h3M0 32.5h2m1 0h5m4 0h1m2 0h1m1 0h2m1 0h1m2 0h4m1 0h1m4 0h1m5 0h2m2 0h2M0 33.5h1m1 0h1m1 0h2m3 0h1m1 0h1m6 0h3m3 0h5m3 0h2m2 0h1m4 0h4M4 34.5h1m1 0h3m1 0h1m1 0h3m3 0h3m1 0h1m1 0h4m5 0h3m3 0h2m1 0h1M1 35.5h4m2 0h4m1 0h1m1 0h2m2 0h3m1 0h2m1 0h1m4 0h4m1 0h3m1 0h1m1 0h2m1 0h1M0 36.5h1m2 0h2m1 0h2m1 0h4m1 0h1m2 0h1m1 0h7m5 0h1m2 0h1m1 0h6M8 37.5h3m1 0h1m2 0h1m1 0h2m1 0h1m3 0h4m1 0h4m3 0h1m3 0h1m1 0h1m1 0h1M0 38.5h7m4 0h1m1 0h1m1 0h2m3 0h1m1 0h1m1 0h1m2 0h1m1 0h6m1 0h1m1 0h1m1 0h2m1 0h1M0 39.5h1m5 0h1m3 0h1m1 0h3m1 0h1m3 0h1m3 0h1m1 0h2m4 0h2m2 0h1m3 0h3M0 40.5h1m1 0h3m1 0h1m1 0h2m1 0h1m2 0h1m2 0h2m1 0h5m1 0h1m1 0h2m1 0h1m1 0h9m1 0h2M0 41.5h1m1 0h3m1 0h1m1 0h2m1 0h1m6 0h1m3 0h3m1 0h1m4 0h3m1 0h1m2 0h7M0 42.5h1m1 0h3m1 0h1m1 0h1m1 0h1m3 0h2m1 0h3m1 0h2m1 0h2m1 0h1m3 0h4m1 0h1m1 0h1M0 43.5h1m5 0h1m2 0h1m1 0h2m3 0h4m1 0h1m2 0h1m9 0h1m1 0h1m4 0h2M0 44.5h7m5 0h2m2 0h1m2 0h1m1 0h1m2 0h3m1 0h1m1 0h7m1 0h3m2 0h1"/>
  </svg>
  </svg>

  <!-- Business Name -->
  <text x="375" y="893"
    font-family="'Space Grotesk', sans-serif" font-size="42"
    font-weight="700"
    fill="#1a1a1a" text-anchor="middle">VirtualTest</text>

  <!-- Slogan -->
  <text x="375" y="942"
    font-family="'Space Grotesk', sans-serif" font-size="35"
    font-weight="400"
    fill="#1a1a1a" opacity="0.70" text-anchor="middle">slogan</text>

  <!-- Stars -->
  <polygon points="279.50,956.00 283.88,969.47 298.05,969.47 286.58,977.80 290.96,991.28 279.50,982.95 268.04,991.28 272.42,977.80 260.95,969.47 275.12,969.47" fill="#F59E0B"/><polygon points="325.50,956.00 329.88,969.47 344.05,969.47 332.58,977.80 336.96,991.28 325.50,982.95 314.04,991.28 318.42,977.80 306.95,969.47 321.12,969.47" fill="#F59E0B"/><polygon points="371.50,956.00 375.88,969.47 390.05,969.47 378.58,977.80 382.96,991.28 371.50,982.95 360.04,991.28 364.42,977.80 352.95,969.47 367.12,969.47" fill="#F59E0B"/><polygon points="417.50,956.00 421.88,969.47 436.05,969.47 424.58,977.80 428.96,991.28 417.50,982.95 406.04,991.28 410.42,977.80 398.95,969.47 413.12,969.47" fill="#F59E0B"/><polygon points="463.50,956.00 467.88,969.47 482.05,969.47 470.58,977.80 474.96,991.28 463.50,982.95 452.04,991.28 456.42,977.80 444.95,969.47 459.12,969.47" fill="#F59E0B"/>

  <!-- Instructions -->
  
  <circle cx="250.44" cy="1145.5" r="21.450000000000003" fill="#22C55E" opacity="0.12"/>
  <polyline
    points="238.74,1145.5 248.49,1161.1 264.09,1135.75"
    fill="none" stroke="#22C55E"
    stroke-width="1.5"
    stroke-linecap="round" stroke-linejoin="round"/>
  <text x="290.94" y="1165"
    font-family="'Space Grotesk', sans-serif" font-size="32"
    font-weight="400"
    letter-spacing="0em"
    fill="#1a1a1a" opacity="0.90">Scan the QR code with your camera</text>
  
  <circle cx="242.12" cy="1205.5" r="21.450000000000003" fill="#22C55E" opacity="0.12"/>
  <polyline
    points="230.42000000000002,1205.5 240.17000000000002,1221.1 255.77,1195.75"
    fill="none" stroke="#22C55E"
    stroke-width="1.5"
    stroke-linecap="round" stroke-linejoin="round"/>
  <text x="282.62" y="1225"
    font-family="'Space Grotesk', sans-serif" font-size="32"
    font-weight="400"
    letter-spacing="0em"
    fill="#1a1a1a" opacity="0.90">Write a review on our profile page</text>

  <!-- ✅ CTA - DESSUS -->
  <text x="535.5" y="1344"
    font-family="'Space Grotesk', sans-serif" font-size="35"
    font-weight="500"
    fill="#1a1a1a" opacity="0.70" text-anchor="middle">Powered by RedVanta</text>

</g>
</svg>