<?xml version="1.0" encoding="UTF-8"?>
<svg xmlns="http://www.w3.org/2000/svg" xmlns:xlink="http://www.w3.org/1999/xlink"
  width="1071" height="1436" viewBox="0 0 1071 1436">
<defs>
  
  <linearGradient id="rectoGrad" x1="94%" y1="34%" x2="6%" y2="66%">
    <stop offset="0%" stop-color="#FFFFFF"/>
    <stop offset="70%" stop-color="#FAFAFA"/>
  </linearGradient>
  <linearGradient id="versoGrad" x1="94%" y1="34%" x2="6%" y2="66%">
    <stop offset="0%" stop-color="#FAFAFA"/>
    <stop offset="100%" stop-color="#FFFFFF"/>
  </linearGradient>
  <linearGradient id="bandGrad" x1="0%" y1="0%" x2="100%" y2="0%">
    <stop offset="0%" stop-color="#D4AF37"/>
    <stop offset="100%" stop-color="#D4AF37"/>
  </linearGradient>
  <clipPath id="cr">
    <rect x="30" y="30" width="1011" height="638" rx="16"/>
  </clipPath>
  <clipPath id="cv">
    <rect x="30" y="748" width="1011" height="638" rx="16"/>
  </clipPath>
</defs>

<text x="30" y="20" font-family="Arial,sans-serif" font-size="20" fill="#555">RECTO</text>
<g clip-path="url(#cr)">
  
  <!-- Fond recto -->
  <rect x="30" y="30" width="1011" height="638" fill="url(#rectoGrad)"/>

  <!-- Band rendu AVANT les icons pour z-order correct -->
  <rect x="30" y="528" width="1011" height="140"
    fill="url(#bandGrad)" opacity="0.9"/>

  <!-- NFC icon -->
  <g transform="translate(897, 78) scale(4.000)"
    fill="none" stroke="#1a1a1a" stroke-width="2" stroke-linecap="round"
    opacity="0.3">
    <path d="M6 8.32a7.43 7.43 0 0 1 0 7.36"/>
    <path d="M9.46 6.21a11.76 11.76 0 0 1 0 11.58"/>
    <path d="M12.91 4.1a16.09 16.09 0 0 1 0 15.8"/>
  </g>

  <!-- ✅ Google icon dans le band, bas-droite, dessiné APRÈS le band -->
  <g transform="translate(937, 550) scale(3.333)" opacity="1">
    <path d="M22.56 12.25c0-.78-.07-1.53-.2-2.25H12v4.26h5.92a5.06 5.06 0 0 1-2.2 3.32v2.77h3.57c2.08-1.92 3.27-4.74 3.27-8.1z" fill="#4285F4"/>
    <path d="M12 23c2.97 0 5.46-.98 7.28-2.66l-3.57-2.77c-.98.66-2.23 1.06-3.71 1.06-2.86 0-5.29-1.93-6.16-4.53H2.18v2.84C3.99 20.53 7.7 23 12 23z" fill="#34A853"/>
    <path d="M5.84 14.09c-.22-.66-.35-1.36-.35-2.09s.13-1.43.35-2.09V7.07H2.18C1.43 8.55 1 10.22 1 12s.43 3.45 1.18 4.93l2.85-2.22.81-.62z" fill="#FBBC05"/>
    <path d="M12 5.38c1.62 0 3.06.56 4.21 1.64l3.15-3.15C17.45 2.09 14.97 1 12 1 7.7 1 3.99 3.47 2.18 7.07l3.66 2.84c.87-2.6 3.3-4.53 6.16-4.53z" fill="#EA4335"/>
  </g>

  <!-- Business Name -->
  <text x="110" y="139"
    font-family="'Space Grotesk', sans-serif" font-size="64"
    font-weight="700"
    letter-spacing="0em"
    
    fill="#1a1a1a"
    text-anchor="start">VirtualTest</text>

  <!-- Slogan -->
  <text x="110" y="203"
    font-family="'Space Grotesk', sans-serif" font-size="48"
    font-weight="400"
    letter-spacing="0em"
    
    fill="#1a1a1a" opacity="0.70">slogan</text>

  <!-- Stars -->
  <polygon points="138.00,227.00 144.29,246.35 164.63,246.35 148.17,258.31 154.46,277.65 138.00,265.70 121.54,277.65 127.83,258.31 111.37,246.35 131.71,246.35" fill="#F59E0B"/><polygon points="202.00,227.00 208.29,246.35 228.63,246.35 212.17,258.31 218.46,277.65 202.00,265.70 185.54,277.65 191.83,258.31 175.37,246.35 195.71,246.35" fill="#F59E0B"/><polygon points="266.00,227.00 272.29,246.35 292.63,246.35 276.17,258.31 282.46,277.65 266.00,265.70 249.54,277.65 255.83,258.31 239.37,246.35 259.71,246.35" fill="#F59E0B"/><polygon points="330.00,227.00 336.29,246.35 356.63,246.35 340.17,258.31 346.46,277.65 330.00,265.70 313.54,277.65 319.83,258.31 303.37,246.35 323.71,246.35" fill="#F59E0B"/><polygon points="394.00,227.00 400.29,246.35 420.63,246.35 404.17,258.31 410.46,277.65 394.00,265.70 377.54,277.65 383.83,258.31 367.37,246.35 387.71,246.35" fill="#F59E0B"/>

  <!-- Instructions avec check icons -->
  
  <circle cx="138" cy="375" r="30.800000000000004" fill="#22C55E" opacity="0.15"/>
  <polyline
    points="121.2,375 135.2,397.4 157.6,361"
    fill="none" stroke="#22C55E"
    stroke-width="2"
    stroke-linecap="round" stroke-linejoin="round"/>
  <text x="198" y="403"
    font-family="'Space Grotesk', sans-serif" font-size="40"
    font-weight="400"
    letter-spacing="0em"
    fill="#1a1a1a" opacity="0.90">Approach your phone to the card</text>
  
  <circle cx="138" cy="463" r="30.800000000000004" fill="#22C55E" opacity="0.15"/>
  <polyline
    points="121.2,463 135.2,485.4 157.6,449"
    fill="none" stroke="#22C55E"
    stroke-width="2"
    stroke-linecap="round" stroke-linejoin="round"/>
  <text x="198" y="491"
    font-family="'Space Grotesk', sans-serif" font-size="40"
    font-weight="400"
    letter-spacing="0em"
    fill="#1a1a1a" opacity="0.90">Tap to leave a review</text>

  <!-- ✅ CTA - positionné sous les instructions -->
  <text x="110" y="623"
    font-family="'Space Grotesk', sans-serif" font-size="36"
    font-weight="500"
    fill="#1a1a1a" opacity="0.80">Powered by RedVanta</text>

</g>

<line x1="30" y1="708" x2="1041" y2="708"
      stroke="#333" stroke-width="1" stroke-dasharray="8 5" opacity="0.5"/>

<text x="30" y="738" font-family="Arial,sans-serif" font-size="20" fill="#555">VERSO</text>
<g clip-path="url(#cv)">
  
  <!-- Fond verso -->
  <rect x="30" y="748" width="1011" height="638" fill="url(#versoGrad)"/>

  <!-- Band rendu AVANT les icons -->
  <rect x="30" y="1309" width="1011" height="77"
    fill="url(#bandGrad)" opacity="0.9"/>

  <!-- ✅ Google icon dans le band, bas-droite, dessiné APRÈS le band -->
  <g transform="translate(937, 1299) scale(3.333)" opacity="1">
    <path d="M22.56 12.25c0-.78-.07-1.53-.2-2.25H12v4.26h5.92a5.06 5.06 0 0 1-2.2 3.32v2.77h3.57c2.08-1.92 3.27-4.74 3.27-8.1z" fill="#4285F4"/>
    <path d="M12 23c2.97 0 5.46-.98 7.28-2.66l-3.57-2.77c-.98.66-2.23 1.06-3.71 1.06-2.86 0-5.29-1.93-6.16-4.53H2.18v2.84C3.99 20.53 7.7 23 12 23z" fill="#34A853"/>
    <path d="M5.84 14.09c-.22-.66-.35-1.36-.35-2.09s.13-1.43.35-2.09V7.07H2.18C1.43 8.55 1 10.22 1 12s.43 3.45 1.18 4.93l2.85-2.22.81-.62z" fill="#FBBC05"/>
    <path d="M12 5.38c1.62 0 3.06.56 4.21 1.64l3.15-3.15C17.45 2.09 14.97 1 12 1 7.7 1 3.99 3.47 2.18 7.07l3.66 2.84c.87-2.6 3.3-4.53 6.16-4.53z" fill="#EA4335"/>
  </g>

  <!-- ✅ QR Code fond blanc + brackets -->
  <rect x="602" y="744" width="319" height="319"
    rx="8" fill="#FFFFFF"/>

  <!-- Brackets blancs -->
  <rect x="602" y="744" width="89" height="22" fill="#FFFFFF"/>
  <rect x="602" y="744" width="22" height="89" fill="#FFFFFF"/>
  <rect x="832" y="744" width="89" height="22" fill="#FFFFFF"/>
  <rect x="899" y="744" width="22" height="89" fill="#FFFFFF"/>
  <rect x="602" y="1041" width="89" height="22" fill="#FFFFFF"/>
  <rect x="602" y="974" width="22" height="89" fill="#FFFFFF"/>
  <rect x="832" y="1041" width="89" height="22" fill="#FFFFFF"/>
  <rect x="899" y="974" width="22" height="89" fill="#FFFFFF"/>

  <!-- QR SVG -->
  <svg x="634" y="776"
       width="255" height="255"
       viewBox="0 0 255 255"
       preserveAspectRatio="xMidYMid meet">
    <svg viewBox="0 0 41 41" preserveAspectRatio="xMidYMid meet" width="100%" height="100%">
    <path fill="#FFFFFF" d="M0 0h41v41H0z"/><path stroke="#E10600" d="M0 0.5h7m1 0h1m1 0h4m5 0h1m2 0h1m3 0h1m2 0h1m1 0h1m2 0h7M0 1.5h1m5 0h1m1 0h1m2 0h1m4 0h2m1 0h1m3 0h1m1 0h1m1 0h4m1 0h1m1 0h1m5 0h1M0 2.5h1m1 0h3m1 0h1m1 0h4m2 0h3m1 0h1m1 0h1m3 0h1m2 0h3m2 0h1m1 0h1m1 0h3m1 0h1M0 3.5h1m1 0h3m1 0h1m3 0h1m1 0h1m2 0h2m2 0h2m7 0h4m2 0h1m1 0h3m1 0h1M0 4.5h1m1 0h3m1 0h1m3 0h1m3 0h1m2 0h7m1 0h1m3 0h3m2 0h1m1 0h3m1 0h1M0 5.5h1m5 0h1m1 0h6m4 0h1m3 0h2m3 0h3m4 0h1m5 0h1M0 6.5h7m1 0h1m1 0h1m1 0h1m1 0h1m1 0h1m1 0h1m1 0h1m1 0h1m1 0h1m1 0h1m1 0h1m1 0h1m1 0h1m1 0h7M8 7.5h1m4 0h2m1 0h2m7 0h1m1 0h1m3 0h1M2 8.5h3m1 0h1m1 0h1m2 0h2m1 0h2m5 0h1m2 0h2m3 0h1m3 0h3m2 0h3M0 9.5h2m6 0h1m1 0h3m1 0h3m2 0h1m1 0h2m5 0h9m1 0h3M0 10.5h1m2 0h1m1 0h2m2 0h2m3 0h1m1 0h1m2 0h3m5 0h1m1 0h1m3 0h1m1 0h2M3 11.5h1m4 0h1m1 0h2m1 0h3m1 0h7m1 0h3m4 0h1m2 0h3m2 0h1M0 12.5h1m2 0h4m2 0h3m2 0h1m2 0h1m2 0h1m1 0h1m3 0h1m1 0h2m1 0h3m1 0h1m1 0h3M0 13.5h1m3 0h1m3 0h1m3 0h1m1 0h3m1 0h1m4 0h1m1 0h2m3 0h2m4 0h2m1 0h2M0 14.5h1m4 0h7m2 0h1m2 0h1m2 0h1m4 0h3m3 0h1m1 0h2m1 0h1M1 15.5h1m1 0h1m7 0h3m3 0h3m1 0h1m1 0h1m4 0h1m1 0h5m1 0h1m2 0h2M1 16.5h3m2 0h2m1 0h1m2 0h1m1 0h1m1 0h2m4 0h4m1 0h1m1 0h2m2 0h1m1 0h1m1 0h3M0 17.5h1m2 0h1m1 0h1m2 0h1m1 0h1m3 0h3m3 0h1m2 0h1m2 0h1m2 0h1m1 0h1m1 0h2m1 0h2m2 0h1M0 18.5h3m2 0h2m3 0h1m1 0h2m3 0h1m1 0h2m1 0h1m2 0h1m1 0h2m1 0h1m1 0h2m2 0h1m1 0h1M2 19.5h2m1 0h1m3 0h3m3 0h5m3 0h2m1 0h1m1 0h1m3 0h2m2 0h2m2 0h1M0 20.5h2m1 0h2m1 0h1m2 0h2m1 0h1m8 0h1m2 0h1m2 0h2m1 0h1m1 0h2m4 0h2M0 21.5h1m4 0h1m1 0h5m1 0h2m2 0h1m2 0h1m1 0h1m1 0h2m5 0h2m1 0h3m2 0h2M0 22.5h2m1 0h1m1 0h2m2 0h4m3 0h1m3 0h1m6 0h4m1 0h2m1 0h2m1 0h1M1 23.5h1m1 0h1m1 0h1m1 0h2m1 0h1m3 0h1m2 0h1m5 0h1m1 0h2m1 0h1m2 0h2m1 0h2M4 24.5h1m1 0h1m4 0h1m1 0h2m1 0h2m1 0h1m6 0h2m1 0h1m1 0h1m1 0h1m1 0h1m1 0h3M1 25.5h3m4 0h1m1 0h1m1 0h1m1 0h2m1 0h2m1 0h3m5 0h1m1 0h3m1 0h1m1 0h2m1 0h2M1 26.5h1m1 0h2m1 0h2m1 0h2m3 0h1m1 0h2m1 0h1m1 0h1m4 0h2m1 0h2m1 0h2m1 0h2M3 27.5h1m3 0h2m2 0h4m1 0h1m2 0h3m5 0h2m1 0h4m1 0h1m1 0h1M3 28.5h1m1 0h3m3 0h2m1 0h1m1 0h4m1 0h1m3 0h2m2 0h1m1 0h1m1 0h1m1 0h1m1 0h4M0 29.5h2m2 0h2m2 0h4m1 0h1m1 0h2m4 0h1m1 0h2m3 0h3m2 0h2m1 0h1m1 0h3M0 30.5h1m1 0h1m1 0h1m1 0h2m4 0h1m1 0h3m2 0h1m3 0h1m1 0h1m1 0h1m2 0h1m1 0h1m1 0h1m1 0h1m1 0h1M0 31.5h1m1 0h4m2 0h1m2 0h3m2 0h1m1 0h1m1 0h2m2 0h3m4 0h2m1 0h3m2 0h1M0 32.5h1m1 0h1m1 0h3m1 0h3m3 0h2m2 0h1m3 0h1m1 0h1m2 0h4m1 0h8M8 33.5h1m1 0h2m1 0h4m1 0h1m3 0h3m1 0h1m4 0h2m3 0h2m2 0h1M0 34.5h7m2 0h4m1 0h1m1 0h2m1 0h1m3 0h1m1 0h1m1 0h2m2 0h2m1 0h1m1 0h1M0 35.5h1m5 0h1m2 0h1m1 0h1m2 0h1m2 0h1m1 0h5m4 0h1m1 0h1m1 0h1m3 0h1m3 0h1M0 36.5h1m1 0h3m1 0h1m1 0h1m2 0h1m1 0h1m1 0h3m1 0h2m1 0h3m2 0h2m1 0h1m1 0h5m1 0h1m1 0h1M0 37.5h1m1 0h3m1 0h1m1 0h2m1 0h2m3 0h4m1 0h3m1 0h1m4 0h2m1 0h1m1 0h1m2 0h1m1 0h1M0 38.5h1m1 0h3m1 0h1m1 0h2m1 0h1m5 0h1m1 0h3m2 0h2m1 0h1m2 0h1m2 0h5m1 0h1M0 39.5h1m5 0h1m3 0h2m5 0h4m1 0h4m2 0h1m3 0h2m2 0h1m2 0h1M0 40.5h7m2 0h1m1 0h1m5 0h1m1 0h1m5 0h1m1 0h1m1 0h1m3 0h1m1 0h2m1 0h1"/>
  </svg>
  </svg>

  <!-- Business Name -->
  <text x="352" y="862"
    font-family="'Space Grotesk', sans-serif" font-size="48"
    font-weight="700"
    fill="#1a1a1a" text-anchor="middle">VirtualTest</text>

  <!-- Slogan -->
  <text x="352" y="918"
    font-family="'Space Grotesk', sans-serif" font-size="40"
    font-weight="400"
    fill="#1a1a1a" opacity="0.70" text-anchor="middle">slogan</text>

  <!-- Stars -->
  <polygon points="244.00,934.00 248.94,949.20 264.92,949.20 251.99,958.60 256.93,973.80 244.00,964.40 231.07,973.80 236.01,958.60 223.08,949.20 239.06,949.20" fill="#F59E0B"/><polygon points="296.00,934.00 300.94,949.20 316.92,949.20 303.99,958.60 308.93,973.80 296.00,964.40 283.07,973.80 288.01,958.60 275.08,949.20 291.06,949.20" fill="#F59E0B"/><polygon points="348.00,934.00 352.94,949.20 368.92,949.20 355.99,958.60 360.93,973.80 348.00,964.40 335.07,973.80 340.01,958.60 327.08,949.20 343.06,949.20" fill="#F59E0B"/><polygon points="400.00,934.00 404.94,949.20 420.92,949.20 407.99,958.60 412.93,973.80 400.00,964.40 387.07,973.80 392.01,958.60 379.08,949.20 395.06,949.20" fill="#F59E0B"/><polygon points="452.00,934.00 456.94,949.20 472.92,949.20 459.99,958.60 464.93,973.80 452.00,964.40 439.07,973.80 444.01,958.60 431.08,949.20 447.06,949.20" fill="#F59E0B"/>

  <!-- Instructions centrées -->
  
  <circle cx="210.62" cy="1151" r="26.400000000000002" fill="#22C55E" opacity="0.15"/>
  <polyline
    points="196.22,1151 208.22,1170.2 227.42000000000002,1139"
    fill="none" stroke="#22C55E"
    stroke-width="2"
    stroke-linecap="round" stroke-linejoin="round"/>
  <text x="266.62" y="1175"
    font-family="'Space Grotesk', sans-serif" font-size="36"
    font-weight="400"
    letter-spacing="0em"
    fill="#1a1a1a" opacity="0.90">Scan the QR code with your camera</text>
  
  <circle cx="201.26" cy="1231" r="26.400000000000002" fill="#22C55E" opacity="0.15"/>
  <polyline
    points="186.85999999999999,1231 198.85999999999999,1250.2 218.06,1219"
    fill="none" stroke="#22C55E"
    stroke-width="2"
    stroke-linecap="round" stroke-linejoin="round"/>
  <text x="257.26" y="1255"
    font-family="'Space Grotesk', sans-serif" font-size="36"
    font-weight="400"
    letter-spacing="0em"
    fill="#1a1a1a" opacity="0.90">Write a review on our profile page</text>

  <!-- ✅ CTA centré, ancré proprement -->
  <text x="535.5" y="1391"
    font-family="'Space Grotesk', sans-serif" font-size="40"
    font-weight="500"
    fill="#1a1a1a" opacity="0.70" text-anchor="middle">Powered by RedVanta</text>

</g>
</svg>