<?xml version="1.0" encoding="UTF-8"?>
<svg xmlns="http://www.w3.org/2000/svg" xmlns:xlink="http://www.w3.org/1999/xlink"
  width="1071" height="1436" viewBox="0 0 1071 1436">
<defs>
  
  <linearGradient id="rectoGrad" x1="94%" y1="34%" x2="6%" y2="66%">
    <stop offset="0%" stop-color="#FFFFFF"/>
    <stop offset="70%" stop-color="#FAFAFA"/>
  </linearGradient>
  <linearGradient id="versoGrad" x1="94%" y1="34%" x2="6%" y2="66%">
    <stop offset="0%" stop-color="#FAFAFA"/>
    <stop offset="100%" stop-color="#FFFFFF"/>
  </linearGradient>
  <linearGradient id="bandGrad" x1="0%" y1="0%" x2="100%" y2="0%">
    <stop offset="0%" stop-color="#D4AF37"/>
    <stop offset="100%" stop-color="#D4AF37"/>
  </linearGradient>
  <clipPath id="cr">
    <rect x="30" y="30" width="1011" height="638" rx="16"/>
  </clipPath>
  <clipPath id="cv">
    <rect x="30" y="748" width="1011" height="638" rx="16"/>
  </clipPath>
</defs>

<text x="30" y="20" font-family="Arial,sans-serif" font-size="20" fill="#555">RECTO</text>
<g clip-path="url(#cr)">
  
  <!-- Fond recto -->
  <rect x="30" y="30" width="1011" height="638" fill="url(#rectoGrad)"/>

  <!-- Band (frontBandHeight=22%, bandPosition=bottom) -->
  <rect x="30" y="528" width="1011" height="140"
    fill="url(#bandGrad)" opacity="0.9"/>

  <!-- NFC icon (showNfcIcon=true, nfcIconSize=24) -->
  <g transform="translate(946, 58) scale(2.792)"
    fill="none" stroke="#1a1a1a" stroke-width="2" stroke-linecap="round"
    opacity="0.3">
    <path d="M6 8.32a7.43 7.43 0 0 1 0 7.36"/>
    <path d="M9.46 6.21a11.76 11.76 0 0 1 0 11.58"/>
    <path d="M12.91 4.1a16.09 16.09 0 0 1 0 15.8"/>
  </g>

  <!-- Google icon dans le band, dessiné APRÈS pour z-order (showGoogleIcon=true) -->
  <g transform="translate(963, 570) scale(2.333)" opacity="1">
    <path d="M22.56 12.25c0-.78-.07-1.53-.2-2.25H12v4.26h5.92a5.06 5.06 0 0 1-2.2 3.32v2.77h3.57c2.08-1.92 3.27-4.74 3.27-8.1z" fill="#4285F4"/>
    <path d="M12 23c2.97 0 5.46-.98 7.28-2.66l-3.57-2.77c-.98.66-2.23 1.06-3.71 1.06-2.86 0-5.29-1.93-6.16-4.53H2.18v2.84C3.99 20.53 7.7 23 12 23z" fill="#34A853"/>
    <path d="M5.84 14.09c-.22-.66-.35-1.36-.35-2.09s.13-1.43.35-2.09V7.07H2.18C1.43 8.55 1 10.22 1 12s.43 3.45 1.18 4.93l2.85-2.22.81-.62z" fill="#FBBC05"/>
    <path d="M12 5.38c1.62 0 3.06.56 4.21 1.64l3.15-3.15C17.45 2.09 14.97 1 12 1 7.7 1 3.99 3.47 2.18 7.07l3.66 2.84c.87-2.6 3.3-4.53 6.16-4.53z" fill="#EA4335"/>
  </g>

  <!-- Business Name (businessFont, businessFontSize, businessFontWeight, businessFontSpacing, businessTextTransform) -->
  <text x="86" y="186"
    font-family="'Space Grotesk', sans-serif" font-size="45"
    font-weight="700"
    letter-spacing="0em"
    
    fill="#1a1a1a"
    text-anchor="start">VirtualTest</text>

  <!-- Slogan (sloganFont, sloganFontSize, sloganFontWeight, sloganFontSpacing, sloganTextTransform) -->
  <text x="86" y="231"
    font-family="'Space Grotesk', sans-serif" font-size="34"
    font-weight="400"
    letter-spacing="0em"
    
    fill="#1a1a1a" opacity="0.70">slogan</text>

  <!-- Stars (starColor) -->
  <polygon points="105.50,248.00 109.88,261.47 124.05,261.47 112.58,269.80 116.96,283.28 105.50,274.95 94.04,283.28 98.42,269.80 86.95,261.47 101.12,261.47" fill="#F59E0B"/><polygon points="150.50,248.00 154.88,261.47 169.05,261.47 157.58,269.80 161.96,283.28 150.50,274.95 139.04,283.28 143.42,269.80 131.95,261.47 146.12,261.47" fill="#F59E0B"/><polygon points="195.50,248.00 199.88,261.47 214.05,261.47 202.58,269.80 206.96,283.28 195.50,274.95 184.04,283.28 188.42,269.80 176.95,261.47 191.12,261.47" fill="#F59E0B"/><polygon points="240.50,248.00 244.88,261.47 259.05,261.47 247.58,269.80 251.96,283.28 240.50,274.95 229.04,283.28 233.42,269.80 221.95,261.47 236.12,261.47" fill="#F59E0B"/><polygon points="285.50,248.00 289.88,261.47 304.05,261.47 292.58,269.80 296.96,283.28 285.50,274.95 274.04,283.28 278.42,269.80 266.95,261.47 281.12,261.47" fill="#F59E0B"/>

  <!-- Instructions (instrFont, instrFontSize, instrFontWeight, instrFontSpacing, iconsColor, checkStrokeWidth) -->
  
  <circle cx="103" cy="349" r="18.700000000000003" fill="#22C55E" opacity="0.15"/>
  <polyline
    points="92.8,349 101.3,362.6 114.9,340.5"
    fill="none" stroke="#22C55E"
    stroke-width="2"
    stroke-linecap="round" stroke-linejoin="round"/>
  <text x="142" y="366"
    font-family="'Space Grotesk', sans-serif" font-size="28"
    font-weight="400"
    letter-spacing="0em"
    fill="#1a1a1a" opacity="0.90">Approach your phone to the card</text>
  
  <circle cx="103" cy="400" r="18.700000000000003" fill="#22C55E" opacity="0.15"/>
  <polyline
    points="92.8,400 101.3,413.6 114.9,391.5"
    fill="none" stroke="#22C55E"
    stroke-width="2"
    stroke-linecap="round" stroke-linejoin="round"/>
  <text x="142" y="417"
    font-family="'Space Grotesk', sans-serif" font-size="28"
    font-weight="400"
    letter-spacing="0em"
    fill="#1a1a1a" opacity="0.90">Tap to leave a review</text>

  <!-- CTA (callToAction, ctaPaddingTop) : bas-gauche, au-dessus du band -->
  <text x="86" y="506"
    font-family="'Space Grotesk', sans-serif" font-size="25"
    font-weight="500"
    fill="#1a1a1a" opacity="0.75">Powered by RedVanta</text>

</g>

<line x1="30" y1="708" x2="1041" y2="708"
      stroke="#333" stroke-width="1" stroke-dasharray="8 5" opacity="0.5"/>

<text x="30" y="738" font-family="Arial,sans-serif" font-size="20" fill="#555">VERSO</text>
<g clip-path="url(#cv)">
  
  <!-- Fond verso -->
  <rect x="30" y="748" width="1011" height="638" fill="url(#versoGrad)"/>

  <!-- Band (backBandHeight=12%, bandPosition=bottom) -->
  <rect x="30" y="1309" width="1011" height="77"
    fill="url(#bandGrad)" opacity="0.9"/>

  <!-- Google icon dans le band, dessiné APRÈS (showGoogleIcon=true, googleLogoSize=20) -->
  <g transform="translate(963, 1319) scale(2.333)" opacity="1">
    <path d="M22.56 12.25c0-.78-.07-1.53-.2-2.25H12v4.26h5.92a5.06 5.06 0 0 1-2.2 3.32v2.77h3.57c2.08-1.92 3.27-4.74 3.27-8.1z" fill="#4285F4"/>
    <path d="M12 23c2.97 0 5.46-.98 7.28-2.66l-3.57-2.77c-.98.66-2.23 1.06-3.71 1.06-2.86 0-5.29-1.93-6.16-4.53H2.18v2.84C3.99 20.53 7.7 23 12 23z" fill="#34A853"/>
    <path d="M5.84 14.09c-.22-.66-.35-1.36-.35-2.09s.13-1.43.35-2.09V7.07H2.18C1.43 8.55 1 10.22 1 12s.43 3.45 1.18 4.93l2.85-2.22.81-.62z" fill="#FBBC05"/>
    <path d="M12 5.38c1.62 0 3.06.56 4.21 1.64l3.15-3.15C17.45 2.09 14.97 1 12 1 7.7 1 3.99 3.47 2.18 7.07l3.66 2.84c.87-2.6 3.3-4.53 6.16-4.53z" fill="#EA4335"/>
  </g>

  <!-- QR Code (qrCodeSize=80, qrCodeStyle=right, accentColor=#E10600) -->
  <rect x="643" y="852" width="224" height="224" rx="8" fill="#FFFFFF"/>
  <rect x="643" y="852" width="63" height="16" fill="#FFFFFF"/>
  <rect x="643" y="852" width="16" height="63" fill="#FFFFFF"/>
  <rect x="804" y="852" width="63" height="16" fill="#FFFFFF"/>
  <rect x="851" y="852" width="16" height="63" fill="#FFFFFF"/>
  <rect x="643" y="1060" width="63" height="16" fill="#FFFFFF"/>
  <rect x="643" y="1013" width="16" height="63" fill="#FFFFFF"/>
  <rect x="804" y="1060" width="63" height="16" fill="#FFFFFF"/>
  <rect x="851" y="1013" width="16" height="63" fill="#FFFFFF"/>
  <svg x="665" y="874"
       width="179" height="179"
       viewBox="0 0 179 179"
       preserveAspectRatio="xMidYMid meet"><svg viewBox="0 0 45 45" preserveAspectRatio="xMidYMid meet" width="100%" height="100%">
    <path fill="#FFFFFF" d="M0 0h45v45H0z"/><path stroke="#E10600" d="M0 0.5h7m1 0h1m1 0h2m5 0h1m7 0h1m2 0h4m4 0h1m1 0h7M0 1.5h1m5 0h1m1 0h2m5 0h1m1 0h1m1 0h2m1 0h1m2 0h1m9 0h1m2 0h1m5 0h1M0 2.5h1m1 0h3m1 0h1m1 0h1m4 0h3m2 0h1m2 0h1m1 0h1m2 0h1m1 0h2m3 0h1m1 0h1m2 0h1m1 0h3m1 0h1M0 3.5h1m1 0h3m1 0h1m3 0h1m1 0h2m4 0h4m1 0h3m3 0h1m1 0h3m1 0h2m1 0h1m1 0h3m1 0h1M0 4.5h1m1 0h3m1 0h1m2 0h1m1 0h2m2 0h2m1 0h1m1 0h7m2 0h2m1 0h1m1 0h3m1 0h1m1 0h3m1 0h1M0 5.5h1m5 0h1m1 0h1m1 0h3m1 0h2m2 0h3m3 0h1m6 0h3m4 0h1m5 0h1M0 6.5h7m1 0h1m1 0h1m1 0h1m1 0h1m1 0h1m1 0h1m1 0h1m1 0h1m1 0h1m1 0h1m1 0h1m1 0h1m1 0h1m1 0h1m1 0h1m1 0h7M8 7.5h1m6 0h1m1 0h2m1 0h1m3 0h2m1 0h1m1 0h2m1 0h1m1 0h1M2 8.5h3m1 0h1m1 0h1m1 0h2m1 0h3m1 0h2m1 0h5m1 0h1m2 0h2m3 0h1m2 0h3m2 0h3M1 9.5h1m1 0h2m6 0h1m3 0h3m2 0h6m4 0h1m4 0h2m3 0h1m3 0h1M1 10.5h3m1 0h4m1 0h1m2 0h1m3 0h3m1 0h1m1 0h4m1 0h1m4 0h2m1 0h1m1 0h2m3 0h1M0 11.5h4m3 0h1m1 0h1m3 0h1m1 0h8m1 0h1m2 0h2m1 0h1m1 0h2m1 0h2m2 0h2m1 0h1M0 12.5h2m1 0h1m1 0h2m2 0h1m1 0h1m2 0h3m2 0h2m1 0h1m2 0h2m2 0h3m1 0h1m5 0h1m2 0h2M0 13.5h1m2 0h1m5 0h9m1 0h3m2 0h4m2 0h2m1 0h1m2 0h1m3 0h1m2 0h2M0 14.5h2m1 0h2m1 0h6m1 0h4m1 0h2m1 0h6m2 0h1m1 0h1m2 0h2m1 0h3m2 0h1M1 15.5h1m2 0h1m2 0h2m1 0h1m1 0h5m3 0h1m2 0h1m3 0h2m1 0h1m1 0h1m1 0h3m1 0h1m1 0h3M0 16.5h2m1 0h2m1 0h2m4 0h1m1 0h1m1 0h3m1 0h1m1 0h2m3 0h1m1 0h2m4 0h1m2 0h2m1 0h1m1 0h1M1 17.5h2m5 0h3m1 0h4m1 0h1m1 0h1m3 0h6m1 0h1m1 0h1m3 0h1m3 0h2m2 0h1M1 18.5h1m3 0h3m7 0h1m1 0h3m3 0h2m1 0h5m2 0h2m1 0h4m1 0h1m1 0h1M1 19.5h1m1 0h2m3 0h1m4 0h1m1 0h1m1 0h1m1 0h1m2 0h1m2 0h2m2 0h1m2 0h2m2 0h1m3 0h3M0 20.5h1m2 0h6m2 0h7m2 0h5m1 0h1m4 0h1m2 0h1m1 0h6m2 0h1M1 21.5h1m2 0h1m3 0h2m2 0h2m2 0h1m3 0h1m3 0h1m1 0h4m1 0h2m2 0h2m3 0h1m1 0h1m1 0h1M1 22.5h2m1 0h1m1 0h1m1 0h1m6 0h2m1 0h1m1 0h1m1 0h1m1 0h5m1 0h1m2 0h2m1 0h1m1 0h1m1 0h1m1 0h2M0 23.5h1m1 0h3m3 0h5m2 0h1m1 0h1m2 0h1m3 0h1m1 0h6m1 0h2m1 0h1m3 0h1m1 0h1M2 24.5h1m1 0h5m1 0h1m4 0h1m1 0h1m1 0h7m2 0h1m1 0h1m2 0h1m1 0h7M2 25.5h2m1 0h1m2 0h3m1 0h6m1 0h5m7 0h1m1 0h1m1 0h1m1 0h1m1 0h1m2 0h1M1 26.5h1m4 0h1m1 0h1m5 0h1m2 0h2m3 0h2m1 0h2m1 0h2m3 0h1m1 0h3m1 0h1m1 0h3M2 27.5h3m2 0h5m2 0h2m2 0h1m1 0h4m1 0h1m1 0h1m3 0h1m2 0h1m1 0h1m1 0h1m2 0h3M0 28.5h1m3 0h1m1 0h2m1 0h1m4 0h2m2 0h1m1 0h3m2 0h2m2 0h1m3 0h1m3 0h2m1 0h1m2 0h1M1 29.5h1m2 0h2m1 0h1m1 0h5m5 0h4m1 0h1m3 0h2m1 0h1m3 0h3m3 0h1m1 0h2M1 30.5h2m3 0h1m2 0h2m4 0h2m2 0h2m2 0h1m1 0h3m1 0h6m2 0h1m1 0h1M1 31.5h1m1 0h1m3 0h2m1 0h1m1 0h1m1 0h4m2 0h6m1 0h1m4 0h2m1 0h2m1 0h1m4 0h1M0 32.5h1m2 0h1m2 0h1m5 0h1m2 0h2m6 0h2m1 0h1m1 0h2m1 0h1m1 0h1m5 0h2m2 0h2M4 33.5h2m1 0h1m1 0h2m5 0h1m5 0h2m1 0h1m3 0h5m2 0h2m1 0h1m1 0h2m1 0h1M4 34.5h1m1 0h1m1 0h1m4 0h7m2 0h1m4 0h1m5 0h2m3 0h2m2 0h2M1 35.5h4m2 0h1m1 0h1m1 0h1m2 0h2m2 0h3m1 0h1m2 0h4m2 0h2m2 0h2m1 0h2m1 0h2m1 0h1M0 36.5h1m2 0h2m1 0h2m2 0h3m3 0h1m3 0h5m2 0h5m4 0h6m1 0h1M8 37.5h1m3 0h2m1 0h1m4 0h1m3 0h1m1 0h1m3 0h4m2 0h1m3 0h1m1 0h1m1 0h1M0 38.5h7m3 0h2m1 0h2m1 0h1m3 0h1m1 0h1m1 0h1m3 0h5m1 0h1m1 0h1m1 0h1m1 0h2m1 0h1M0 39.5h1m5 0h1m2 0h2m1 0h1m2 0h2m2 0h2m3 0h1m1 0h2m1 0h2m1 0h1m2 0h2m3 0h3M0 40.5h1m1 0h3m1 0h1m1 0h1m3 0h2m1 0h1m1 0h8m1 0h1m1 0h1m1 0h2m1 0h2m1 0h6m1 0h2M0 41.5h1m1 0h3m1 0h1m1 0h3m3 0h1m1 0h1m1 0h2m2 0h1m1 0h1m1 0h1m2 0h5m1 0h1m2 0h7M0 42.5h1m1 0h3m1 0h1m1 0h1m1 0h2m1 0h2m3 0h1m1 0h3m1 0h2m1 0h1m1 0h6m1 0h1m1 0h1m2 0h2M0 43.5h1m5 0h1m2 0h1m2 0h2m1 0h1m1 0h3m1 0h1m1 0h2m1 0h4m4 0h1m1 0h1m2 0h1m1 0h2M0 44.5h7m4 0h1m2 0h1m1 0h3m8 0h1m1 0h8m1 0h1m4 0h1"/>
  </svg></svg>

  <!-- Business Name (businessFont, businessFontSize, businessFontWeight) -->
  <text x="407" y="935"
    font-family="'Space Grotesk', sans-serif" font-size="34"
    font-weight="700"
    fill="#1a1a1a" text-anchor="middle">VirtualTest</text>

  <!-- Slogan (sloganFont, sloganFontSize, sloganFontWeight) -->
  <text x="407" y="974"
    font-family="'Space Grotesk', sans-serif" font-size="28"
    font-weight="400"
    fill="#1a1a1a" opacity="0.70" text-anchor="middle">slogan</text>

  <!-- Stars (starColor) -->
  <polygon points="329.50,985.00 332.98,995.71 344.24,995.71 335.13,1002.33 338.61,1013.04 329.50,1006.42 320.39,1013.04 323.87,1002.33 314.76,995.71 326.02,995.71" fill="#F59E0B"/><polygon points="366.50,985.00 369.98,995.71 381.24,995.71 372.13,1002.33 375.61,1013.04 366.50,1006.42 357.39,1013.04 360.87,1002.33 351.76,995.71 363.02,995.71" fill="#F59E0B"/><polygon points="403.50,985.00 406.98,995.71 418.24,995.71 409.13,1002.33 412.61,1013.04 403.50,1006.42 394.39,1013.04 397.87,1002.33 388.76,995.71 400.02,995.71" fill="#F59E0B"/><polygon points="440.50,985.00 443.98,995.71 455.24,995.71 446.13,1002.33 449.61,1013.04 440.50,1006.42 431.39,1013.04 434.87,1002.33 425.76,995.71 437.02,995.71" fill="#F59E0B"/><polygon points="477.50,985.00 480.98,995.71 492.24,995.71 483.13,1002.33 486.61,1013.04 477.50,1006.42 468.39,1013.04 471.87,1002.33 462.76,995.71 474.02,995.71" fill="#F59E0B"/>

  <!-- Instructions (backInstruction1/2, instrFont, instrFontSize, iconsColor, checkStrokeWidth) -->
  
  <circle cx="310" cy="1138" r="18.700000000000003" fill="#22C55E" opacity="0.15"/>
  <polyline
    points="299.8,1138 308.3,1151.6 321.9,1129.5"
    fill="none" stroke="#22C55E"
    stroke-width="2"
    stroke-linecap="round" stroke-linejoin="round"/>
  <text x="349" y="1155"
    font-family="'Space Grotesk', sans-serif" font-size="25"
    font-weight="400"
    letter-spacing="0em"
    fill="#1a1a1a" opacity="0.90">Scan the QR code with your camera</text>
  
  <circle cx="303.5" cy="1189" r="18.700000000000003" fill="#22C55E" opacity="0.15"/>
  <polyline
    points="293.3,1189 301.8,1202.6 315.4,1180.5"
    fill="none" stroke="#22C55E"
    stroke-width="2"
    stroke-linecap="round" stroke-linejoin="round"/>
  <text x="342.5" y="1206"
    font-family="'Space Grotesk', sans-serif" font-size="25"
    font-weight="400"
    letter-spacing="0em"
    fill="#1a1a1a" opacity="0.90">Write a review on our profile page</text>

  <!-- CTA (callToAction, ctaPaddingTop) : centré, au-dessus du band -->
  <text x="535.5" y="1287"
    font-family="'Space Grotesk', sans-serif" font-size="25"
    font-weight="500"
    fill="#1a1a1a" opacity="0.70" text-anchor="middle">Powered by RedVanta</text>

</g>
</svg>